<svg width="94" height="16" viewBox="0 0 94 16" fill="none" xmlns="http://www.w3.org/2000/svg">
<g id="HelpMeOut">
<path d="M7.552 12.416V0.736033H10.176V12.416H7.552ZM0 12.416V0.736033H2.624V12.416H0ZM2.16 7.69603V5.39203H8.016V7.69603H2.16Z" fill="#120B48"/>
<path d="M16.6689 12.72C15.9222 12.72 15.2609 12.592 14.6849 12.336C14.1195 12.08 13.6449 11.7387 13.2609 11.312C12.8875 10.8747 12.5995 10.3894 12.3969 9.85603C12.2049 9.31203 12.1089 8.75737 12.1089 8.19203V7.87203C12.1089 7.28537 12.2049 6.72537 12.3969 6.19203C12.5995 5.64803 12.8875 5.1627 13.2609 4.73603C13.6342 4.30937 14.0982 3.97337 14.6529 3.72803C15.2182 3.47203 15.8582 3.34403 16.5729 3.34403C17.5115 3.34403 18.3009 3.55737 18.9409 3.98403C19.5915 4.40003 20.0875 4.94937 20.4289 5.63203C20.7702 6.30403 20.9409 7.04003 20.9409 7.84003V8.70403H13.1809V7.24803H19.3889L18.5569 7.92003C18.5569 7.39737 18.4822 6.94937 18.3329 6.57603C18.1835 6.2027 17.9595 5.92003 17.6609 5.72803C17.3729 5.52537 17.0102 5.42403 16.5729 5.42403C16.1249 5.42403 15.7462 5.52537 15.4369 5.72803C15.1275 5.9307 14.8929 6.22937 14.7329 6.62403C14.5729 7.00803 14.4929 7.4827 14.4929 8.04803C14.4929 8.5707 14.5675 9.02937 14.7169 9.42403C14.8662 9.80803 15.1009 10.1067 15.4209 10.32C15.7409 10.5334 16.1569 10.64 16.6689 10.64C17.1382 10.64 17.5222 10.5494 17.8209 10.368C18.1195 10.1867 18.3222 9.9627 18.4289 9.69603H20.7809C20.6529 10.2827 20.4022 10.8054 20.0289 11.264C19.6555 11.7227 19.1862 12.08 18.6209 12.336C18.0555 12.592 17.4049 12.72 16.6689 12.72Z" fill="#120B48"/>
<path d="M22.7493 12.416V0.736033H25.3253V12.416H22.7493ZM21.7092 2.62403V0.736033H25.3253V2.62403H21.7092Z" fill="#120B48"/>
<path d="M27.6841 15.616V3.64803H29.7161V7.44003L29.4441 7.42403C29.4868 6.54937 29.6681 5.81337 29.9881 5.21603C30.3081 4.60803 30.7401 4.1547 31.2841 3.85603C31.8281 3.5467 32.4415 3.39203 33.1241 3.39203C33.7321 3.39203 34.2815 3.50403 34.7721 3.72803C35.2735 3.95203 35.7001 4.2667 36.0521 4.67203C36.4148 5.0667 36.6868 5.53603 36.8681 6.08003C37.0601 6.61337 37.1561 7.20003 37.1561 7.84003V8.20803C37.1561 8.83737 37.0655 9.42937 36.8841 9.98403C36.7028 10.528 36.4361 11.0027 36.0841 11.408C35.7428 11.8134 35.3215 12.1334 34.8201 12.368C34.3295 12.592 33.7641 12.704 33.1241 12.704C32.4628 12.704 31.8655 12.5707 31.3321 12.304C30.8095 12.0267 30.3881 11.6107 30.0681 11.056C29.7481 10.4907 29.5721 9.77603 29.5401 8.91203L30.2441 9.87203V15.616H27.6841ZM32.4041 10.56C32.8415 10.56 33.2201 10.4534 33.5401 10.24C33.8708 10.0267 34.1268 9.72803 34.3081 9.34403C34.4895 8.96003 34.5801 8.51737 34.5801 8.01603C34.5801 7.5147 34.4895 7.07737 34.3081 6.70403C34.1268 6.3307 33.8761 6.0427 33.5561 5.84003C33.2361 5.6267 32.8521 5.52003 32.4041 5.52003C32.0201 5.52003 31.6575 5.6107 31.3161 5.79203C30.9748 5.97337 30.6975 6.2347 30.4841 6.57603C30.2815 6.9067 30.1801 7.31203 30.1801 7.79203V8.38403C30.1801 8.8427 30.2868 9.23737 30.5001 9.56803C30.7241 9.88803 31.0068 10.1334 31.3481 10.304C31.6895 10.4747 32.0415 10.56 32.4041 10.56Z" fill="#120B48"/>
<path d="M39.0781 12.416V0.736033H42.6941L45.3661 7.29603H45.6701L48.3101 0.736033H51.9901V12.416H49.3981V2.44803L49.7661 2.48003L46.6781 10.048H44.1821L41.0781 2.48003L41.4781 2.44803V12.416H39.0781Z" fill="#120B48"/>
<path d="M58.4814 12.72C57.7347 12.72 57.0734 12.592 56.4974 12.336C55.932 12.08 55.4574 11.7387 55.0734 11.312C54.7 10.8747 54.412 10.3894 54.2094 9.85603C54.0174 9.31203 53.9214 8.75737 53.9214 8.19203V7.87203C53.9214 7.28537 54.0174 6.72537 54.2094 6.19203C54.412 5.64803 54.7 5.1627 55.0734 4.73603C55.4467 4.30937 55.9107 3.97337 56.4654 3.72803C57.0307 3.47203 57.6707 3.34403 58.3854 3.34403C59.324 3.34403 60.1134 3.55737 60.7534 3.98403C61.404 4.40003 61.9 4.94937 62.2414 5.63203C62.5827 6.30403 62.7534 7.04003 62.7534 7.84003V8.70403H54.9934V7.24803H61.2014L60.3694 7.92003C60.3694 7.39737 60.2947 6.94937 60.1454 6.57603C59.996 6.2027 59.772 5.92003 59.4734 5.72803C59.1854 5.52537 58.8227 5.42403 58.3854 5.42403C57.9374 5.42403 57.5587 5.52537 57.2494 5.72803C56.94 5.9307 56.7054 6.22937 56.5454 6.62403C56.3854 7.00803 56.3054 7.4827 56.3054 8.04803C56.3054 8.5707 56.38 9.02937 56.5294 9.42403C56.6787 9.80803 56.9134 10.1067 57.2334 10.32C57.5534 10.5334 57.9694 10.64 58.4814 10.64C58.9507 10.64 59.3347 10.5494 59.6334 10.368C59.932 10.1867 60.1347 9.9627 60.2414 9.69603H62.5934C62.4654 10.2827 62.2147 10.8054 61.8414 11.264C61.468 11.7227 60.9987 12.08 60.4334 12.336C59.868 12.592 59.2174 12.72 58.4814 12.72Z" fill="#120B48"/>
<path d="M70.1938 12.72C69.1378 12.72 68.2151 12.5387 67.4258 12.176C66.6471 11.8027 66.0018 11.3174 65.4898 10.72C64.9778 10.112 64.5938 9.45603 64.3378 8.75203C64.0924 8.04803 63.9698 7.3707 63.9698 6.72003V6.36803C63.9698 5.6427 64.0978 4.92803 64.3538 4.22403C64.6204 3.50937 65.0151 2.86403 65.5378 2.28803C66.0604 1.71203 66.7111 1.25337 67.4898 0.912033C68.2684 0.560033 69.1698 0.384033 70.1938 0.384033C71.2178 0.384033 72.1191 0.560033 72.8978 0.912033C73.6764 1.25337 74.3271 1.71203 74.8498 2.28803C75.3724 2.86403 75.7671 3.50937 76.0338 4.22403C76.3004 4.92803 76.4338 5.6427 76.4338 6.36803V6.72003C76.4338 7.3707 76.3057 8.04803 76.0498 8.75203C75.7938 9.45603 75.4098 10.112 74.8978 10.72C74.3857 11.3174 73.7351 11.8027 72.9458 12.176C72.1671 12.5387 71.2498 12.72 70.1938 12.72ZM70.1938 10.272C70.7484 10.272 71.2444 10.176 71.6818 9.98403C72.1298 9.79203 72.5084 9.52537 72.8178 9.18403C73.1378 8.8427 73.3777 8.44803 73.5378 8.00003C73.6978 7.55203 73.7778 7.07203 73.7778 6.56003C73.7778 6.01603 73.6924 5.52003 73.5218 5.07203C73.3617 4.61337 73.1218 4.2187 72.8018 3.88803C72.4924 3.5467 72.1191 3.28537 71.6818 3.10403C71.2444 2.9227 70.7484 2.83203 70.1938 2.83203C69.6391 2.83203 69.1431 2.9227 68.7058 3.10403C68.2684 3.28537 67.8898 3.5467 67.5698 3.88803C67.2604 4.2187 67.0258 4.61337 66.8658 5.07203C66.7057 5.52003 66.6258 6.01603 66.6258 6.56003C66.6258 7.07203 66.7057 7.55203 66.8658 8.00003C67.0258 8.44803 67.2604 8.8427 67.5698 9.18403C67.8898 9.52537 68.2684 9.79203 68.7058 9.98403C69.1431 10.176 69.6391 10.272 70.1938 10.272Z" fill="#120B48"/>
<path d="M81.2379 12.688C80.2245 12.688 79.4459 12.3627 78.9019 11.712C78.3579 11.0507 78.0859 10.0587 78.0859 8.73603V3.64803H80.6459V8.86403C80.6459 9.33337 80.7792 9.7067 81.0459 9.98403C81.3125 10.2614 81.6699 10.4 82.1179 10.4C82.5765 10.4 82.9499 10.256 83.2379 9.96803C83.5259 9.68003 83.6699 9.2907 83.6699 8.80003V3.64803H86.2299V12.416H84.1979V8.72003H84.3739C84.3739 9.60537 84.2565 10.3467 84.0219 10.944C83.7979 11.5307 83.4619 11.968 83.0139 12.256C82.5659 12.544 82.0112 12.688 81.3499 12.688H81.2379Z" fill="#120B48"/>
<path d="M92.5744 12.528C91.689 12.528 90.9744 12.4214 90.4304 12.208C89.8864 11.984 89.4864 11.616 89.2304 11.104C88.985 10.5814 88.8624 9.87737 88.8624 8.99203V1.28003H91.2464V9.08803C91.2464 9.50403 91.353 9.82403 91.5664 10.048C91.7904 10.2614 92.105 10.368 92.5104 10.368H93.8064V12.528H92.5744ZM87.5344 5.52003V3.64803H93.8064V5.52003H87.5344Z" fill="#120B48"/>
</g>
</svg>
