<svg width="224" height="30" viewBox="0 0 224 30" fill="none" xmlns="http://www.w3.org/2000/svg">
<g id="This extension helps you record and share help videos with ease.">
<path d="M7.56 0.98V2.03H4.34V10.22H3.22V2.03H0V0.98H7.56Z" fill="#413C6D"/>
<path d="M9.02978 10.22V0H10.1498V4.27C10.3924 3.85 10.7144 3.54667 11.1158 3.36C11.5171 3.17333 11.9558 3.08 12.4318 3.08C12.9358 3.08 13.3931 3.178 13.8038 3.374C14.2144 3.56067 14.5411 3.85 14.7838 4.242C15.0358 4.634 15.1618 5.13333 15.1618 5.74V10.22H14.0418V6.132C14.0418 5.35733 13.8738 4.82067 13.5378 4.522C13.2111 4.214 12.8051 4.06 12.3198 4.06C11.9838 4.06 11.6478 4.13933 11.3118 4.298C10.9758 4.45667 10.6958 4.718 10.4718 5.082C10.2571 5.43667 10.1498 5.91267 10.1498 6.51V10.22H9.02978Z" fill="#413C6D"/>
<path d="M18.2577 1.876C18.0057 1.876 17.8004 1.80133 17.6418 1.652C17.4924 1.49333 17.4177 1.288 17.4177 1.036C17.4177 0.784 17.4924 0.583333 17.6418 0.434C17.8004 0.275333 18.0057 0.196 18.2577 0.196C18.5098 0.196 18.7104 0.275333 18.8598 0.434C19.0184 0.583333 19.0977 0.784 19.0977 1.036C19.0977 1.288 19.0184 1.49333 18.8598 1.652C18.7104 1.80133 18.5098 1.876 18.2577 1.876ZM18.8178 3.22V10.22H17.6978V3.22H18.8178Z" fill="#413C6D"/>
<path d="M23.9365 10.36C23.2552 10.36 22.6252 10.2153 22.0465 9.926C21.4772 9.63667 21.0385 9.226 20.7305 8.694L21.6825 8.008C21.8878 8.43733 22.1865 8.77333 22.5785 9.016C22.9798 9.25867 23.4605 9.38 24.0205 9.38C24.5152 9.38 24.9025 9.28667 25.1825 9.1C25.4625 8.904 25.6025 8.652 25.6025 8.344C25.6025 8.148 25.5372 7.97067 25.4065 7.812C25.2852 7.644 25.0472 7.52267 24.6925 7.448L23.0125 7.098C22.3312 6.958 21.8412 6.72467 21.5425 6.398C21.2532 6.07133 21.1085 5.66533 21.1085 5.18C21.1085 4.79733 21.2158 4.44733 21.4305 4.13C21.6545 3.81267 21.9672 3.56067 22.3685 3.374C22.7792 3.178 23.2598 3.08 23.8105 3.08C24.5012 3.08 25.0845 3.21533 25.5605 3.486C26.0365 3.75667 26.3912 4.13933 26.6245 4.634L25.6865 5.25C25.5278 4.83933 25.2712 4.54067 24.9165 4.354C24.5618 4.158 24.1932 4.06 23.8105 4.06C23.4745 4.06 23.1852 4.10667 22.9425 4.2C22.7092 4.29333 22.5272 4.424 22.3965 4.592C22.2752 4.75067 22.2145 4.93267 22.2145 5.138C22.2145 5.34333 22.2845 5.53467 22.4245 5.712C22.5645 5.88 22.8258 6.00133 23.2085 6.076L24.9585 6.44C25.6118 6.57067 26.0692 6.78533 26.3305 7.084C26.5918 7.38267 26.7225 7.74667 26.7225 8.176C26.7225 8.61467 26.6058 9.002 26.3725 9.338C26.1392 9.66467 25.8125 9.91667 25.3925 10.094C24.9725 10.2713 24.4872 10.36 23.9365 10.36Z" fill="#413C6D"/>
<path d="M36.4968 10.36C35.8341 10.36 35.2415 10.2153 34.7188 9.926C34.2055 9.63667 33.8041 9.22133 33.5148 8.68C33.2255 8.12933 33.0808 7.476 33.0808 6.72C33.0808 5.964 33.2255 5.31533 33.5148 4.774C33.8041 4.22333 34.2008 3.80333 34.7048 3.514C35.2088 3.22467 35.7828 3.08 36.4268 3.08C37.0801 3.08 37.6355 3.22 38.0928 3.5C38.5595 3.78 38.9141 4.16267 39.1568 4.648C39.3995 5.124 39.5208 5.66067 39.5208 6.258C39.5208 6.41667 39.5161 6.56133 39.5068 6.692C39.4975 6.82267 39.4835 6.93933 39.4648 7.042H33.8088V6.048H38.9748L38.4008 6.16C38.4008 5.488 38.2141 4.97 37.8408 4.606C37.4768 4.242 36.9961 4.06 36.3988 4.06C35.9415 4.06 35.5448 4.16733 35.2088 4.382C34.8821 4.58733 34.6255 4.89067 34.4388 5.292C34.2615 5.684 34.1728 6.16 34.1728 6.72C34.1728 7.27067 34.2661 7.74667 34.4528 8.148C34.6395 8.54933 34.9008 8.85733 35.2368 9.072C35.5821 9.27733 35.9928 9.38 36.4688 9.38C36.9821 9.38 37.3975 9.282 37.7148 9.086C38.0415 8.89 38.3028 8.624 38.4988 8.288L39.3808 8.806C39.2035 9.12333 38.9748 9.39867 38.6948 9.632C38.4241 9.86533 38.1021 10.0473 37.7288 10.178C37.3648 10.2993 36.9541 10.36 36.4968 10.36Z" fill="#413C6D"/>
<path d="M42.0631 3.22L44.1491 6.146L44.2191 6.244L47.0891 10.22H45.7171L43.5471 7.182L43.4211 7.028L40.6631 3.22H42.0631ZM47.0471 3.22L44.2751 6.958H44.2051L41.7971 10.22H40.4951L43.5471 6.202H43.6311L45.7311 3.22H47.0471Z" fill="#413C6D"/>
<path d="M50.5079 1.232V8.288C50.5079 8.63333 50.606 8.89 50.802 9.058C50.998 9.226 51.25 9.31 51.558 9.31C51.8286 9.31 52.062 9.26333 52.2579 9.17C52.4539 9.07667 52.6313 8.95067 52.79 8.792L53.1819 9.73C52.9673 9.926 52.7106 10.08 52.412 10.192C52.1226 10.304 51.7866 10.36 51.4039 10.36C51.0493 10.36 50.7179 10.2993 50.41 10.178C50.102 10.0473 49.8546 9.84667 49.6679 9.576C49.4906 9.296 49.3973 8.932 49.388 8.484V1.54L50.5079 1.232ZM53.056 3.22V4.186H47.988V3.22H53.056Z" fill="#413C6D"/>
<path d="M57.6472 10.36C56.9845 10.36 56.3919 10.2153 55.8692 9.926C55.3559 9.63667 54.9545 9.22133 54.6652 8.68C54.3759 8.12933 54.2312 7.476 54.2312 6.72C54.2312 5.964 54.3759 5.31533 54.6652 4.774C54.9545 4.22333 55.3512 3.80333 55.8552 3.514C56.3592 3.22467 56.9332 3.08 57.5772 3.08C58.2305 3.08 58.7859 3.22 59.2432 3.5C59.7099 3.78 60.0645 4.16267 60.3072 4.648C60.5499 5.124 60.6712 5.66067 60.6712 6.258C60.6712 6.41667 60.6665 6.56133 60.6572 6.692C60.6479 6.82267 60.6339 6.93933 60.6152 7.042H54.9592V6.048H60.1252L59.5512 6.16C59.5512 5.488 59.3645 4.97 58.9912 4.606C58.6272 4.242 58.1465 4.06 57.5492 4.06C57.0919 4.06 56.6952 4.16733 56.3592 4.382C56.0325 4.58733 55.7759 4.89067 55.5892 5.292C55.4118 5.684 55.3232 6.16 55.3232 6.72C55.3232 7.27067 55.4165 7.74667 55.6032 8.148C55.7899 8.54933 56.0512 8.85733 56.3872 9.072C56.7325 9.27733 57.1432 9.38 57.6192 9.38C58.1325 9.38 58.5479 9.282 58.8652 9.086C59.1919 8.89 59.4532 8.624 59.6492 8.288L60.5312 8.806C60.3539 9.12333 60.1252 9.39867 59.8452 9.632C59.5745 9.86533 59.2525 10.0473 58.8792 10.178C58.5152 10.2993 58.1045 10.36 57.6472 10.36Z" fill="#413C6D"/>
<path d="M62.8013 10.22V3.22H63.7813L63.8793 4.788L63.6973 4.634C63.8466 4.26067 64.0473 3.962 64.2993 3.738C64.5513 3.50467 64.8406 3.33667 65.1673 3.234C65.5033 3.13133 65.8486 3.08 66.2033 3.08C66.7073 3.08 67.1646 3.178 67.5753 3.374C67.9859 3.56067 68.3126 3.85 68.5553 4.242C68.8073 4.634 68.9333 5.13333 68.9333 5.74V10.22H67.8133V6.132C67.8133 5.35733 67.6453 4.82067 67.3093 4.522C66.9826 4.214 66.5766 4.06 66.0913 4.06C65.7553 4.06 65.4193 4.13933 65.0833 4.298C64.7473 4.45667 64.4673 4.71333 64.2433 5.068C64.0286 5.42267 63.9213 5.89867 63.9213 6.496V10.22H62.8013Z" fill="#413C6D"/>
<path d="M73.9892 10.36C73.3079 10.36 72.6779 10.2153 72.0992 9.926C71.5299 9.63667 71.0912 9.226 70.7832 8.694L71.7352 8.008C71.9406 8.43733 72.2392 8.77333 72.6312 9.016C73.0326 9.25867 73.5132 9.38 74.0732 9.38C74.5679 9.38 74.9552 9.28667 75.2352 9.1C75.5152 8.904 75.6552 8.652 75.6552 8.344C75.6552 8.148 75.5899 7.97067 75.4592 7.812C75.3379 7.644 75.0999 7.52267 74.7452 7.448L73.0652 7.098C72.3839 6.958 71.8939 6.72467 71.5952 6.398C71.3059 6.07133 71.1612 5.66533 71.1612 5.18C71.1612 4.79733 71.2686 4.44733 71.4832 4.13C71.7072 3.81267 72.0199 3.56067 72.4212 3.374C72.8319 3.178 73.3126 3.08 73.8632 3.08C74.5539 3.08 75.1372 3.21533 75.6132 3.486C76.0892 3.75667 76.4439 4.13933 76.6772 4.634L75.7392 5.25C75.5806 4.83933 75.3239 4.54067 74.9692 4.354C74.6146 4.158 74.2459 4.06 73.8632 4.06C73.5272 4.06 73.2379 4.10667 72.9952 4.2C72.7619 4.29333 72.5799 4.424 72.4492 4.592C72.3279 4.75067 72.2672 4.93267 72.2672 5.138C72.2672 5.34333 72.3372 5.53467 72.4772 5.712C72.6172 5.88 72.8786 6.00133 73.2612 6.076L75.0112 6.44C75.6646 6.57067 76.1219 6.78533 76.3832 7.084C76.6446 7.38267 76.7752 7.74667 76.7752 8.176C76.7752 8.61467 76.6586 9.002 76.4252 9.338C76.1919 9.66467 75.8652 9.91667 75.4452 10.094C75.0252 10.2713 74.5399 10.36 73.9892 10.36Z" fill="#413C6D"/>
<path d="M79.412 1.876C79.16 1.876 78.9547 1.80133 78.7961 1.652C78.6467 1.49333 78.5721 1.288 78.5721 1.036C78.5721 0.784 78.6467 0.583333 78.7961 0.434C78.9547 0.275333 79.16 0.196 79.412 0.196C79.664 0.196 79.8647 0.275333 80.014 0.434C80.1727 0.583333 80.2521 0.784 80.2521 1.036C80.2521 1.288 80.1727 1.49333 80.014 1.652C79.8647 1.80133 79.664 1.876 79.412 1.876ZM79.972 3.22V10.22H78.8521V3.22H79.972Z" fill="#413C6D"/>
<path d="M85.4688 3.08C86.1315 3.08 86.7148 3.22467 87.2188 3.514C87.7321 3.80333 88.1335 4.22333 88.4228 4.774C88.7121 5.31533 88.8568 5.964 88.8568 6.72C88.8568 7.476 88.7121 8.12933 88.4228 8.68C88.1335 9.22133 87.7321 9.63667 87.2188 9.926C86.7148 10.2153 86.1315 10.36 85.4688 10.36C84.8155 10.36 84.2321 10.2153 83.7188 9.926C83.2055 9.63667 82.8041 9.22133 82.5148 8.68C82.2255 8.12933 82.0808 7.476 82.0808 6.72C82.0808 5.964 82.2255 5.31533 82.5148 4.774C82.8041 4.22333 83.2055 3.80333 83.7188 3.514C84.2321 3.22467 84.8155 3.08 85.4688 3.08ZM85.4688 4.046C84.9928 4.046 84.5868 4.15333 84.2508 4.368C83.9148 4.58267 83.6535 4.89067 83.4668 5.292C83.2895 5.684 83.2008 6.16 83.2008 6.72C83.2008 7.27067 83.2895 7.74667 83.4668 8.148C83.6535 8.54933 83.9148 8.85733 84.2508 9.072C84.5868 9.28667 84.9928 9.394 85.4688 9.394C85.9448 9.394 86.3508 9.28667 86.6868 9.072C87.0228 8.85733 87.2795 8.54933 87.4568 8.148C87.6435 7.74667 87.7368 7.27067 87.7368 6.72C87.7368 6.16 87.6435 5.684 87.4568 5.292C87.2795 4.89067 87.0228 4.58267 86.6868 4.368C86.3508 4.15333 85.9448 4.046 85.4688 4.046Z" fill="#413C6D"/>
<path d="M90.9653 10.22V3.22H91.9453L92.0433 4.788L91.8613 4.634C92.0107 4.26067 92.2113 3.962 92.4633 3.738C92.7153 3.50467 93.0047 3.33667 93.3313 3.234C93.6673 3.13133 94.0127 3.08 94.3673 3.08C94.8713 3.08 95.3287 3.178 95.7393 3.374C96.15 3.56067 96.4767 3.85 96.7193 4.242C96.9713 4.634 97.0973 5.13333 97.0973 5.74V10.22H95.9773V6.132C95.9773 5.35733 95.8093 4.82067 95.4733 4.522C95.1467 4.214 94.7407 4.06 94.2553 4.06C93.9193 4.06 93.5833 4.13933 93.2473 4.298C92.9113 4.45667 92.6313 4.71333 92.4073 5.068C92.1927 5.42267 92.0853 5.89867 92.0853 6.496V10.22H90.9653Z" fill="#413C6D"/>
<path d="M104.405 10.22V0H105.525V4.27C105.767 3.85 106.089 3.54667 106.491 3.36C106.892 3.17333 107.331 3.08 107.807 3.08C108.311 3.08 108.768 3.178 109.179 3.374C109.589 3.56067 109.916 3.85 110.159 4.242C110.411 4.634 110.537 5.13333 110.537 5.74V10.22H109.417V6.132C109.417 5.35733 109.249 4.82067 108.913 4.522C108.586 4.214 108.18 4.06 107.695 4.06C107.359 4.06 107.023 4.13933 106.687 4.298C106.351 4.45667 106.071 4.718 105.847 5.082C105.632 5.43667 105.525 5.91267 105.525 6.51V10.22H104.405Z" fill="#413C6D"/>
<path d="M115.999 10.36C115.336 10.36 114.743 10.2153 114.221 9.926C113.707 9.63667 113.306 9.22133 113.017 8.68C112.727 8.12933 112.583 7.476 112.583 6.72C112.583 5.964 112.727 5.31533 113.017 4.774C113.306 4.22333 113.703 3.80333 114.207 3.514C114.711 3.22467 115.285 3.08 115.929 3.08C116.582 3.08 117.137 3.22 117.595 3.5C118.061 3.78 118.416 4.16267 118.659 4.648C118.901 5.124 119.023 5.66067 119.023 6.258C119.023 6.41667 119.018 6.56133 119.009 6.692C118.999 6.82267 118.985 6.93933 118.967 7.042H113.311V6.048H118.477L117.903 6.16C117.903 5.488 117.716 4.97 117.343 4.606C116.979 4.242 116.498 4.06 115.901 4.06C115.443 4.06 115.047 4.16733 114.711 4.382C114.384 4.58733 114.127 4.89067 113.941 5.292C113.763 5.684 113.675 6.16 113.675 6.72C113.675 7.27067 113.768 7.74667 113.955 8.148C114.141 8.54933 114.403 8.85733 114.739 9.072C115.084 9.27733 115.495 9.38 115.971 9.38C116.484 9.38 116.899 9.282 117.217 9.086C117.543 8.89 117.805 8.624 118.001 8.288L118.883 8.806C118.705 9.12333 118.477 9.39867 118.197 9.632C117.926 9.86533 117.604 10.0473 117.231 10.178C116.867 10.2993 116.456 10.36 115.999 10.36Z" fill="#413C6D"/>
<path d="M122.217 0V8.442C122.217 8.79667 122.282 9.044 122.413 9.184C122.543 9.31467 122.753 9.38 123.043 9.38C123.229 9.38 123.383 9.366 123.505 9.338C123.626 9.31 123.789 9.25867 123.995 9.184L123.813 10.164C123.663 10.2293 123.5 10.276 123.323 10.304C123.146 10.3413 122.964 10.36 122.777 10.36C122.207 10.36 121.783 10.206 121.503 9.898C121.232 9.59 121.097 9.11867 121.097 8.484V0H122.217Z" fill="#413C6D"/>
<path d="M125.432 13.16V3.22H126.412L126.51 4.928L126.356 4.732C126.477 4.40533 126.659 4.12067 126.902 3.878C127.145 3.626 127.439 3.43 127.784 3.29C128.129 3.15 128.503 3.08 128.904 3.08C129.473 3.08 129.996 3.22467 130.472 3.514C130.957 3.80333 131.345 4.21867 131.634 4.76C131.923 5.30133 132.068 5.95467 132.068 6.72C132.068 7.476 131.919 8.12933 131.62 8.68C131.331 9.22133 130.943 9.63667 130.458 9.926C129.973 10.2153 129.441 10.36 128.862 10.36C128.283 10.36 127.775 10.22 127.336 9.94C126.907 9.65067 126.599 9.28667 126.412 8.848L126.552 8.638V13.16H125.432ZM128.75 9.38C129.441 9.38 129.977 9.13733 130.36 8.652C130.752 8.16667 130.948 7.52267 130.948 6.72C130.948 5.91733 130.757 5.27333 130.374 4.788C130.001 4.30267 129.473 4.06 128.792 4.06C128.344 4.06 127.952 4.172 127.616 4.396C127.28 4.61067 127.019 4.91867 126.832 5.32C126.645 5.712 126.552 6.17867 126.552 6.72C126.552 7.252 126.641 7.71867 126.818 8.12C127.005 8.52133 127.261 8.834 127.588 9.058C127.924 9.27267 128.311 9.38 128.75 9.38Z" fill="#413C6D"/>
<path d="M136.729 10.36C136.048 10.36 135.418 10.2153 134.839 9.926C134.27 9.63667 133.831 9.226 133.523 8.694L134.475 8.008C134.681 8.43733 134.979 8.77333 135.371 9.016C135.773 9.25867 136.253 9.38 136.813 9.38C137.308 9.38 137.695 9.28667 137.975 9.1C138.255 8.904 138.395 8.652 138.395 8.344C138.395 8.148 138.33 7.97067 138.199 7.812C138.078 7.644 137.84 7.52267 137.485 7.448L135.805 7.098C135.124 6.958 134.634 6.72467 134.335 6.398C134.046 6.07133 133.901 5.66533 133.901 5.18C133.901 4.79733 134.009 4.44733 134.223 4.13C134.447 3.81267 134.76 3.56067 135.161 3.374C135.572 3.178 136.053 3.08 136.603 3.08C137.294 3.08 137.877 3.21533 138.353 3.486C138.829 3.75667 139.184 4.13933 139.417 4.634L138.479 5.25C138.321 4.83933 138.064 4.54067 137.709 4.354C137.355 4.158 136.986 4.06 136.603 4.06C136.267 4.06 135.978 4.10667 135.735 4.2C135.502 4.29333 135.32 4.424 135.189 4.592C135.068 4.75067 135.007 4.93267 135.007 5.138C135.007 5.34333 135.077 5.53467 135.217 5.712C135.357 5.88 135.619 6.00133 136.001 6.076L137.751 6.44C138.405 6.57067 138.862 6.78533 139.123 7.084C139.385 7.38267 139.515 7.74667 139.515 8.176C139.515 8.61467 139.399 9.002 139.165 9.338C138.932 9.66467 138.605 9.91667 138.185 10.094C137.765 10.2713 137.28 10.36 136.729 10.36Z" fill="#413C6D"/>
<path d="M151.762 3.22L148.472 11.396C148.295 11.8533 148.099 12.2127 147.884 12.474C147.679 12.7447 147.446 12.936 147.184 13.048C146.932 13.1693 146.638 13.23 146.302 13.23C145.985 13.23 145.691 13.1833 145.42 13.09C145.159 13.006 144.926 12.8893 144.72 12.74L145.028 11.76C145.215 11.928 145.411 12.0493 145.616 12.124C145.831 12.208 146.041 12.25 146.246 12.25C146.489 12.25 146.718 12.1753 146.932 12.026C147.147 11.8767 147.343 11.5733 147.52 11.116L147.884 10.206L147.184 8.54L144.958 3.22H146.232L147.982 7.784L148.416 9.03L148.92 7.644L150.558 3.22H151.762Z" fill="#413C6D"/>
<path d="M156.125 3.08C156.788 3.08 157.371 3.22467 157.875 3.514C158.388 3.80333 158.79 4.22333 159.079 4.774C159.368 5.31533 159.513 5.964 159.513 6.72C159.513 7.476 159.368 8.12933 159.079 8.68C158.79 9.22133 158.388 9.63667 157.875 9.926C157.371 10.2153 156.788 10.36 156.125 10.36C155.472 10.36 154.888 10.2153 154.375 9.926C153.862 9.63667 153.46 9.22133 153.171 8.68C152.882 8.12933 152.737 7.476 152.737 6.72C152.737 5.964 152.882 5.31533 153.171 4.774C153.46 4.22333 153.862 3.80333 154.375 3.514C154.888 3.22467 155.472 3.08 156.125 3.08ZM156.125 4.046C155.649 4.046 155.243 4.15333 154.907 4.368C154.571 4.58267 154.31 4.89067 154.123 5.292C153.946 5.684 153.857 6.16 153.857 6.72C153.857 7.27067 153.946 7.74667 154.123 8.148C154.31 8.54933 154.571 8.85733 154.907 9.072C155.243 9.28667 155.649 9.394 156.125 9.394C156.601 9.394 157.007 9.28667 157.343 9.072C157.679 8.85733 157.936 8.54933 158.113 8.148C158.3 7.74667 158.393 7.27067 158.393 6.72C158.393 6.16 158.3 5.684 158.113 5.292C157.936 4.89067 157.679 4.58267 157.343 4.368C157.007 4.15333 156.601 4.046 156.125 4.046Z" fill="#413C6D"/>
<path d="M164.156 10.36C163.708 10.36 163.283 10.276 162.882 10.108C162.49 9.94 162.168 9.66933 161.916 9.296C161.673 8.91333 161.552 8.41867 161.552 7.812V3.22H162.672V7.518C162.672 8.22733 162.826 8.71733 163.134 8.988C163.442 9.24933 163.876 9.38 164.436 9.38C164.697 9.38 164.954 9.338 165.206 9.254C165.458 9.16067 165.682 9.02067 165.878 8.834C166.083 8.638 166.242 8.39067 166.354 8.092C166.475 7.79333 166.536 7.43867 166.536 7.028V3.22H167.656V10.22H166.676L166.606 9.156C166.363 9.576 166.032 9.884 165.612 10.08C165.201 10.2667 164.716 10.36 164.156 10.36Z" fill="#413C6D"/>
<path d="M175.034 10.22V3.22H175.944L176.098 4.368C176.294 3.93867 176.578 3.61667 176.952 3.402C177.334 3.18733 177.796 3.08 178.338 3.08C178.459 3.08 178.59 3.08933 178.73 3.108C178.879 3.12667 179.005 3.164 179.108 3.22L178.912 4.242C178.809 4.20467 178.697 4.17667 178.576 4.158C178.454 4.13933 178.282 4.13 178.058 4.13C177.768 4.13 177.474 4.214 177.176 4.382C176.886 4.55 176.644 4.80667 176.448 5.152C176.252 5.488 176.154 5.91733 176.154 6.44V10.22H175.034Z" fill="#413C6D"/>
<path d="M183.456 10.36C182.793 10.36 182.2 10.2153 181.678 9.926C181.164 9.63667 180.763 9.22133 180.474 8.68C180.184 8.12933 180.04 7.476 180.04 6.72C180.04 5.964 180.184 5.31533 180.474 4.774C180.763 4.22333 181.16 3.80333 181.664 3.514C182.168 3.22467 182.742 3.08 183.386 3.08C184.039 3.08 184.594 3.22 185.052 3.5C185.518 3.78 185.873 4.16267 186.116 4.648C186.358 5.124 186.48 5.66067 186.48 6.258C186.48 6.41667 186.475 6.56133 186.466 6.692C186.456 6.82267 186.442 6.93933 186.424 7.042H180.768V6.048H185.934L185.36 6.16C185.36 5.488 185.173 4.97 184.8 4.606C184.436 4.242 183.955 4.06 183.358 4.06C182.9 4.06 182.504 4.16733 182.168 4.382C181.841 4.58733 181.584 4.89067 181.398 5.292C181.22 5.684 181.132 6.16 181.132 6.72C181.132 7.27067 181.225 7.74667 181.412 8.148C181.598 8.54933 181.86 8.85733 182.196 9.072C182.541 9.27733 182.952 9.38 183.428 9.38C183.941 9.38 184.356 9.282 184.674 9.086C185 8.89 185.262 8.624 185.458 8.288L186.34 8.806C186.162 9.12333 185.934 9.39867 185.654 9.632C185.383 9.86533 185.061 10.0473 184.688 10.178C184.324 10.2993 183.913 10.36 183.456 10.36Z" fill="#413C6D"/>
<path d="M191.508 3.08C191.993 3.08 192.418 3.15467 192.782 3.304C193.155 3.45333 193.477 3.668 193.748 3.948C194.019 4.228 194.238 4.55933 194.406 4.942L193.342 5.446C193.193 4.998 192.964 4.65733 192.656 4.424C192.357 4.18133 191.965 4.06 191.48 4.06C191.013 4.06 190.612 4.16733 190.276 4.382C189.94 4.58733 189.683 4.89067 189.506 5.292C189.329 5.684 189.24 6.16 189.24 6.72C189.24 7.27067 189.329 7.74667 189.506 8.148C189.683 8.54933 189.94 8.85733 190.276 9.072C190.612 9.27733 191.013 9.38 191.48 9.38C191.844 9.38 192.157 9.324 192.418 9.212C192.689 9.1 192.908 8.93667 193.076 8.722C193.253 8.50733 193.375 8.246 193.44 7.938L194.476 8.302C194.317 8.73133 194.098 9.1 193.818 9.408C193.547 9.716 193.216 9.954 192.824 10.122C192.441 10.2807 192.003 10.36 191.508 10.36C190.855 10.36 190.271 10.2153 189.758 9.926C189.245 9.63667 188.843 9.22133 188.554 8.68C188.265 8.12933 188.12 7.476 188.12 6.72C188.12 5.964 188.265 5.31533 188.554 4.774C188.843 4.22333 189.245 3.80333 189.758 3.514C190.271 3.22467 190.855 3.08 191.508 3.08Z" fill="#413C6D"/>
<path d="M199.342 3.08C200.005 3.08 200.588 3.22467 201.092 3.514C201.605 3.80333 202.007 4.22333 202.296 4.774C202.585 5.31533 202.73 5.964 202.73 6.72C202.73 7.476 202.585 8.12933 202.296 8.68C202.007 9.22133 201.605 9.63667 201.092 9.926C200.588 10.2153 200.005 10.36 199.342 10.36C198.689 10.36 198.105 10.2153 197.592 9.926C197.079 9.63667 196.677 9.22133 196.388 8.68C196.099 8.12933 195.954 7.476 195.954 6.72C195.954 5.964 196.099 5.31533 196.388 4.774C196.677 4.22333 197.079 3.80333 197.592 3.514C198.105 3.22467 198.689 3.08 199.342 3.08ZM199.342 4.046C198.866 4.046 198.46 4.15333 198.124 4.368C197.788 4.58267 197.527 4.89067 197.34 5.292C197.163 5.684 197.074 6.16 197.074 6.72C197.074 7.27067 197.163 7.74667 197.34 8.148C197.527 8.54933 197.788 8.85733 198.124 9.072C198.46 9.28667 198.866 9.394 199.342 9.394C199.818 9.394 200.224 9.28667 200.56 9.072C200.896 8.85733 201.153 8.54933 201.33 8.148C201.517 7.74667 201.61 7.27067 201.61 6.72C201.61 6.16 201.517 5.684 201.33 5.292C201.153 4.89067 200.896 4.58267 200.56 4.368C200.224 4.15333 199.818 4.046 199.342 4.046Z" fill="#413C6D"/>
<path d="M204.838 10.22V3.22H205.748L205.902 4.368C206.098 3.93867 206.383 3.61667 206.756 3.402C207.139 3.18733 207.601 3.08 208.142 3.08C208.264 3.08 208.394 3.08933 208.534 3.108C208.684 3.12667 208.81 3.164 208.912 3.22L208.716 4.242C208.614 4.20467 208.502 4.17667 208.38 4.158C208.259 4.13933 208.086 4.13 207.862 4.13C207.573 4.13 207.279 4.214 206.98 4.382C206.691 4.55 206.448 4.80667 206.252 5.152C206.056 5.488 205.958 5.91733 205.958 6.44V10.22H204.838Z" fill="#413C6D"/>
<path d="M213.064 10.36C212.486 10.36 211.954 10.2153 211.468 9.926C210.983 9.63667 210.596 9.22133 210.306 8.68C210.017 8.12933 209.872 7.476 209.872 6.72C209.872 5.94533 210.026 5.28733 210.334 4.746C210.642 4.20467 211.048 3.794 211.552 3.514C212.056 3.22467 212.598 3.08 213.176 3.08C213.755 3.08 214.254 3.22933 214.674 3.528C215.104 3.82667 215.388 4.22333 215.528 4.718L215.388 4.816V0H216.508V10.22H215.528L215.43 8.526L215.584 8.442C215.519 8.85267 215.36 9.20267 215.108 9.492C214.866 9.772 214.562 9.98667 214.198 10.136C213.844 10.2853 213.466 10.36 213.064 10.36ZM213.176 9.38C213.624 9.38 214.012 9.268 214.338 9.044C214.674 8.82 214.931 8.50267 215.108 8.092C215.295 7.672 215.388 7.182 215.388 6.622C215.388 6.09 215.295 5.63267 215.108 5.25C214.931 4.86733 214.679 4.57333 214.352 4.368C214.035 4.16267 213.662 4.06 213.232 4.06C212.523 4.06 211.972 4.30267 211.58 4.788C211.188 5.27333 210.992 5.91733 210.992 6.72C210.992 7.52267 211.184 8.16667 211.566 8.652C211.949 9.13733 212.486 9.38 213.176 9.38Z" fill="#413C6D"/>
<path d="M4.942 21.698C4.942 21.1753 4.802 20.774 4.522 20.494C4.242 20.2047 3.84533 20.06 3.332 20.06C2.84667 20.06 2.436 20.1673 2.1 20.382C1.764 20.5873 1.51667 20.9233 1.358 21.39L0.448 20.83C0.634667 20.3073 0.98 19.8873 1.484 19.57C1.988 19.2433 2.61333 19.08 3.36 19.08C3.864 19.08 4.32133 19.1687 4.732 19.346C5.14267 19.514 5.46467 19.7753 5.698 20.13C5.94067 20.4753 6.062 20.9233 6.062 21.474V24.862C6.062 25.198 6.23933 25.366 6.594 25.366C6.77133 25.366 6.944 25.3427 7.112 25.296L7.056 26.178C6.86933 26.2713 6.62667 26.318 6.328 26.318C6.05733 26.318 5.81467 26.2667 5.6 26.164C5.38533 26.0613 5.21733 25.9073 5.096 25.702C4.97467 25.4873 4.914 25.2213 4.914 24.904V24.764L5.194 24.806C5.082 25.17 4.89067 25.4687 4.62 25.702C4.34933 25.926 4.046 26.094 3.71 26.206C3.374 26.3087 3.04267 26.36 2.716 26.36C2.30533 26.36 1.92267 26.29 1.568 26.15C1.21333 26.01 0.928667 25.8 0.714 25.52C0.508667 25.2307 0.406 24.876 0.406 24.456C0.406 23.9333 0.578667 23.504 0.924 23.168C1.27867 22.8227 1.76867 22.5893 2.394 22.468L5.166 21.922V22.846L2.912 23.308C2.45467 23.4013 2.114 23.532 1.89 23.7C1.666 23.868 1.554 24.1013 1.554 24.4C1.554 24.6893 1.666 24.9273 1.89 25.114C2.12333 25.2913 2.45 25.38 2.87 25.38C3.14067 25.38 3.39733 25.3473 3.64 25.282C3.892 25.2073 4.116 25.1 4.312 24.96C4.508 24.8107 4.662 24.6287 4.774 24.414C4.886 24.19 4.942 23.9287 4.942 23.63V21.698Z" fill="#413C6D"/>
<path d="M8.78369 26.22V19.22H9.76369L9.86169 20.788L9.67969 20.634C9.82902 20.2607 10.0297 19.962 10.2817 19.738C10.5337 19.5047 10.823 19.3367 11.1497 19.234C11.4857 19.1313 11.831 19.08 12.1857 19.08C12.6897 19.08 13.147 19.178 13.5577 19.374C13.9684 19.5607 14.295 19.85 14.5377 20.242C14.7897 20.634 14.9157 21.1333 14.9157 21.74V26.22H13.7957V22.132C13.7957 21.3573 13.6277 20.8207 13.2917 20.522C12.965 20.214 12.559 20.06 12.0737 20.06C11.7377 20.06 11.4017 20.1393 11.0657 20.298C10.7297 20.4567 10.4497 20.7133 10.2257 21.068C10.011 21.4227 9.90369 21.8987 9.90369 22.496V26.22H8.78369Z" fill="#413C6D"/>
<path d="M20.1817 26.36C19.603 26.36 19.071 26.2153 18.5857 25.926C18.1003 25.6367 17.713 25.2213 17.4237 24.68C17.1343 24.1293 16.9897 23.476 16.9897 22.72C16.9897 21.9453 17.1437 21.2873 17.4517 20.746C17.7597 20.2047 18.1657 19.794 18.6697 19.514C19.1737 19.2247 19.715 19.08 20.2937 19.08C20.8723 19.08 21.3717 19.2293 21.7917 19.528C22.221 19.8267 22.5057 20.2233 22.6457 20.718L22.5057 20.816V16H23.6257V26.22H22.6457L22.5477 24.526L22.7017 24.442C22.6363 24.8527 22.4777 25.2027 22.2257 25.492C21.983 25.772 21.6797 25.9867 21.3157 26.136C20.961 26.2853 20.583 26.36 20.1817 26.36ZM20.2937 25.38C20.7417 25.38 21.129 25.268 21.4557 25.044C21.7917 24.82 22.0483 24.5027 22.2257 24.092C22.4123 23.672 22.5057 23.182 22.5057 22.622C22.5057 22.09 22.4123 21.6327 22.2257 21.25C22.0483 20.8673 21.7963 20.5733 21.4697 20.368C21.1523 20.1627 20.779 20.06 20.3497 20.06C19.6403 20.06 19.0897 20.3027 18.6977 20.788C18.3057 21.2733 18.1097 21.9173 18.1097 22.72C18.1097 23.5227 18.301 24.1667 18.6837 24.652C19.0663 25.1373 19.603 25.38 20.2937 25.38Z" fill="#413C6D"/>
<path d="M33.5205 26.36C32.8391 26.36 32.2091 26.2153 31.6305 25.926C31.0611 25.6367 30.6225 25.226 30.3145 24.694L31.2665 24.008C31.4718 24.4373 31.7705 24.7733 32.1625 25.016C32.5638 25.2587 33.0445 25.38 33.6045 25.38C34.0992 25.38 34.4865 25.2867 34.7665 25.1C35.0465 24.904 35.1865 24.652 35.1865 24.344C35.1865 24.148 35.1211 23.9707 34.9905 23.812C34.8691 23.644 34.6311 23.5227 34.2765 23.448L32.5965 23.098C31.9151 22.958 31.4251 22.7247 31.1265 22.398C30.8372 22.0713 30.6925 21.6653 30.6925 21.18C30.6925 20.7973 30.7998 20.4473 31.0145 20.13C31.2385 19.8127 31.5512 19.5607 31.9525 19.374C32.3632 19.178 32.8438 19.08 33.3945 19.08C34.0851 19.08 34.6685 19.2153 35.1445 19.486C35.6205 19.7567 35.9752 20.1393 36.2085 20.634L35.2705 21.25C35.1118 20.8393 34.8552 20.5407 34.5005 20.354C34.1458 20.158 33.7771 20.06 33.3945 20.06C33.0585 20.06 32.7691 20.1067 32.5265 20.2C32.2931 20.2933 32.1112 20.424 31.9805 20.592C31.8592 20.7507 31.7985 20.9327 31.7985 21.138C31.7985 21.3433 31.8685 21.5347 32.0085 21.712C32.1485 21.88 32.4098 22.0013 32.7925 22.076L34.5425 22.44C35.1958 22.5707 35.6531 22.7853 35.9145 23.084C36.1758 23.3827 36.3065 23.7467 36.3065 24.176C36.3065 24.6147 36.1898 25.002 35.9565 25.338C35.7231 25.6647 35.3965 25.9167 34.9765 26.094C34.5565 26.2713 34.0711 26.36 33.5205 26.36Z" fill="#413C6D"/>
<path d="M38.3833 26.22V16H39.5033V20.27C39.746 19.85 40.068 19.5467 40.4693 19.36C40.8706 19.1733 41.3093 19.08 41.7853 19.08C42.2893 19.08 42.7466 19.178 43.1573 19.374C43.568 19.5607 43.8946 19.85 44.1373 20.242C44.3893 20.634 44.5153 21.1333 44.5153 21.74V26.22H43.3953V22.132C43.3953 21.3573 43.2273 20.8207 42.8913 20.522C42.5646 20.214 42.1586 20.06 41.6733 20.06C41.3373 20.06 41.0013 20.1393 40.6653 20.298C40.3293 20.4567 40.0493 20.718 39.8253 21.082C39.6106 21.4367 39.5033 21.9127 39.5033 22.51V26.22H38.3833Z" fill="#413C6D"/>
<path d="M51.1393 21.698C51.1393 21.1753 50.9993 20.774 50.7193 20.494C50.4393 20.2047 50.0426 20.06 49.5293 20.06C49.0439 20.06 48.6333 20.1673 48.2973 20.382C47.9613 20.5873 47.7139 20.9233 47.5553 21.39L46.6453 20.83C46.8319 20.3073 47.1773 19.8873 47.6813 19.57C48.1853 19.2433 48.8106 19.08 49.5573 19.08C50.0613 19.08 50.5186 19.1687 50.9293 19.346C51.3399 19.514 51.6619 19.7753 51.8953 20.13C52.1379 20.4753 52.2593 20.9233 52.2593 21.474V24.862C52.2593 25.198 52.4366 25.366 52.7913 25.366C52.9686 25.366 53.1413 25.3427 53.3093 25.296L53.2533 26.178C53.0666 26.2713 52.8239 26.318 52.5253 26.318C52.2546 26.318 52.0119 26.2667 51.7973 26.164C51.5826 26.0613 51.4146 25.9073 51.2933 25.702C51.1719 25.4873 51.1113 25.2213 51.1113 24.904V24.764L51.3913 24.806C51.2793 25.17 51.0879 25.4687 50.8173 25.702C50.5466 25.926 50.2433 26.094 49.9073 26.206C49.5713 26.3087 49.2399 26.36 48.9133 26.36C48.5026 26.36 48.1199 26.29 47.7653 26.15C47.4106 26.01 47.1259 25.8 46.9113 25.52C46.7059 25.2307 46.6033 24.876 46.6033 24.456C46.6033 23.9333 46.7759 23.504 47.1213 23.168C47.4759 22.8227 47.9659 22.5893 48.5913 22.468L51.3633 21.922V22.846L49.1093 23.308C48.6519 23.4013 48.3113 23.532 48.0873 23.7C47.8633 23.868 47.7513 24.1013 47.7513 24.4C47.7513 24.6893 47.8633 24.9273 48.0873 25.114C48.3206 25.2913 48.6473 25.38 49.0673 25.38C49.3379 25.38 49.5946 25.3473 49.8373 25.282C50.0893 25.2073 50.3133 25.1 50.5093 24.96C50.7053 24.8107 50.8593 24.6287 50.9713 24.414C51.0833 24.19 51.1393 23.9287 51.1393 23.63V21.698Z" fill="#413C6D"/>
<path d="M54.9809 26.22V19.22H55.891L56.045 20.368C56.241 19.9387 56.5256 19.6167 56.899 19.402C57.2816 19.1873 57.7436 19.08 58.285 19.08C58.4063 19.08 58.537 19.0893 58.677 19.108C58.8263 19.1267 58.9523 19.164 59.055 19.22L58.859 20.242C58.7563 20.2047 58.6443 20.1767 58.523 20.158C58.4016 20.1393 58.229 20.13 58.005 20.13C57.7156 20.13 57.4216 20.214 57.123 20.382C56.8336 20.55 56.591 20.8067 56.395 21.152C56.199 21.488 56.101 21.9173 56.101 22.44V26.22H54.9809Z" fill="#413C6D"/>
<path d="M63.403 26.36C62.7404 26.36 62.1477 26.2153 61.625 25.926C61.1117 25.6367 60.7104 25.2213 60.421 24.68C60.1317 24.1293 59.987 23.476 59.987 22.72C59.987 21.964 60.1317 21.3153 60.421 20.774C60.7104 20.2233 61.107 19.8033 61.611 19.514C62.115 19.2247 62.689 19.08 63.333 19.08C63.9864 19.08 64.5417 19.22 64.999 19.5C65.4657 19.78 65.8204 20.1627 66.063 20.648C66.3057 21.124 66.427 21.6607 66.427 22.258C66.427 22.4167 66.4224 22.5613 66.413 22.692C66.4037 22.8227 66.3897 22.9393 66.371 23.042H60.715V22.048H65.8811L65.3071 22.16C65.3071 21.488 65.1204 20.97 64.747 20.606C64.383 20.242 63.9024 20.06 63.305 20.06C62.8477 20.06 62.451 20.1673 62.115 20.382C61.7884 20.5873 61.5317 20.8907 61.345 21.292C61.1677 21.684 61.079 22.16 61.079 22.72C61.079 23.2707 61.1724 23.7467 61.359 24.148C61.5457 24.5493 61.807 24.8573 62.143 25.072C62.4884 25.2773 62.899 25.38 63.375 25.38C63.8884 25.38 64.3037 25.282 64.621 25.086C64.9477 24.89 65.2091 24.624 65.4051 24.288L66.287 24.806C66.1097 25.1233 65.8811 25.3987 65.6011 25.632C65.3304 25.8653 65.0084 26.0473 64.635 26.178C64.271 26.2993 63.8604 26.36 63.403 26.36Z" fill="#413C6D"/>
<path d="M73.3286 26.22V16H74.4486V20.27C74.6913 19.85 75.0133 19.5467 75.4146 19.36C75.8159 19.1733 76.2546 19.08 76.7306 19.08C77.2346 19.08 77.6919 19.178 78.1026 19.374C78.5133 19.5607 78.8399 19.85 79.0826 20.242C79.3346 20.634 79.4606 21.1333 79.4606 21.74V26.22H78.3406V22.132C78.3406 21.3573 78.1726 20.8207 77.8366 20.522C77.5099 20.214 77.104 20.06 76.6186 20.06C76.2826 20.06 75.9466 20.1393 75.6106 20.298C75.2746 20.4567 74.9946 20.718 74.7706 21.082C74.5559 21.4367 74.4486 21.9127 74.4486 22.51V26.22H73.3286Z" fill="#413C6D"/>
<path d="M84.9226 26.36C84.2599 26.36 83.6672 26.2153 83.1446 25.926C82.6312 25.6367 82.2299 25.2213 81.9406 24.68C81.6512 24.1293 81.5066 23.476 81.5066 22.72C81.5066 21.964 81.6512 21.3153 81.9406 20.774C82.2299 20.2233 82.6266 19.8033 83.1306 19.514C83.6346 19.2247 84.2086 19.08 84.8526 19.08C85.5059 19.08 86.0612 19.22 86.5186 19.5C86.9852 19.78 87.3399 20.1627 87.5826 20.648C87.8252 21.124 87.9466 21.6607 87.9466 22.258C87.9466 22.4167 87.9419 22.5613 87.9326 22.692C87.9232 22.8227 87.9092 22.9393 87.8906 23.042H82.2346V22.048H87.4006L86.8266 22.16C86.8266 21.488 86.6399 20.97 86.2666 20.606C85.9026 20.242 85.4219 20.06 84.8246 20.06C84.3672 20.06 83.9706 20.1673 83.6346 20.382C83.3079 20.5873 83.0512 20.8907 82.8646 21.292C82.6872 21.684 82.5986 22.16 82.5986 22.72C82.5986 23.2707 82.6919 23.7467 82.8786 24.148C83.0652 24.5493 83.3266 24.8573 83.6626 25.072C84.0079 25.2773 84.4186 25.38 84.8946 25.38C85.4079 25.38 85.8232 25.282 86.1406 25.086C86.4672 24.89 86.7286 24.624 86.9246 24.288L87.8066 24.806C87.6292 25.1233 87.4006 25.3987 87.1206 25.632C86.8499 25.8653 86.5279 26.0473 86.1546 26.178C85.7906 26.2993 85.3799 26.36 84.9226 26.36Z" fill="#413C6D"/>
<path d="M91.1407 16V24.442C91.1407 24.7967 91.206 25.044 91.3367 25.184C91.4673 25.3147 91.6773 25.38 91.9667 25.38C92.1533 25.38 92.3073 25.366 92.4287 25.338C92.55 25.31 92.7133 25.2587 92.9187 25.184L92.7367 26.164C92.5873 26.2293 92.424 26.276 92.2467 26.304C92.0693 26.3413 91.8873 26.36 91.7007 26.36C91.1313 26.36 90.7067 26.206 90.4267 25.898C90.156 25.59 90.0207 25.1187 90.0207 24.484V16H91.1407Z" fill="#413C6D"/>
<path d="M94.356 29.16V19.22H95.336L95.434 20.928L95.28 20.732C95.4013 20.4053 95.5833 20.1207 95.826 19.878C96.0686 19.626 96.3626 19.43 96.708 19.29C97.0533 19.15 97.4266 19.08 97.828 19.08C98.3973 19.08 98.92 19.2247 99.396 19.514C99.8813 19.8033 100.269 20.2187 100.558 20.76C100.847 21.3013 100.992 21.9547 100.992 22.72C100.992 23.476 100.843 24.1293 100.544 24.68C100.255 25.2213 99.8673 25.6367 99.382 25.926C98.8966 26.2153 98.3646 26.36 97.786 26.36C97.2073 26.36 96.6986 26.22 96.26 25.94C95.8306 25.6507 95.5226 25.2867 95.336 24.848L95.476 24.638V29.16H94.356ZM97.674 25.38C98.3646 25.38 98.9013 25.1373 99.284 24.652C99.676 24.1667 99.872 23.5227 99.872 22.72C99.872 21.9173 99.6806 21.2733 99.298 20.788C98.9246 20.3027 98.3973 20.06 97.716 20.06C97.268 20.06 96.876 20.172 96.54 20.396C96.204 20.6107 95.9426 20.9187 95.756 21.32C95.5693 21.712 95.476 22.1787 95.476 22.72C95.476 23.252 95.5646 23.7187 95.742 24.12C95.9286 24.5213 96.1853 24.834 96.512 25.058C96.848 25.2727 97.2353 25.38 97.674 25.38Z" fill="#413C6D"/>
<path d="M112.183 19.22H113.359L110.447 26.22H109.327L106.415 19.22H107.689L109.901 25.086L112.183 19.22Z" fill="#413C6D"/>
<path d="M115.383 17.876C115.131 17.876 114.925 17.8013 114.767 17.652C114.617 17.4933 114.543 17.288 114.543 17.036C114.543 16.784 114.617 16.5833 114.767 16.434C114.925 16.2753 115.131 16.196 115.383 16.196C115.635 16.196 115.835 16.2753 115.985 16.434C116.143 16.5833 116.223 16.784 116.223 17.036C116.223 17.288 116.143 17.4933 115.985 17.652C115.835 17.8013 115.635 17.876 115.383 17.876ZM115.943 19.22V26.22H114.823V19.22H115.943Z" fill="#413C6D"/>
<path d="M121.271 26.36C120.693 26.36 120.161 26.2153 119.675 25.926C119.19 25.6367 118.803 25.2213 118.514 24.68C118.224 24.1293 118.079 23.476 118.079 22.72C118.079 21.9453 118.234 21.2873 118.542 20.746C118.85 20.2047 119.256 19.794 119.759 19.514C120.263 19.2247 120.805 19.08 121.383 19.08C121.962 19.08 122.462 19.2293 122.882 19.528C123.311 19.8267 123.596 20.2233 123.736 20.718L123.596 20.816V16H124.715V26.22H123.736L123.638 24.526L123.792 24.442C123.726 24.8527 123.568 25.2027 123.316 25.492C123.073 25.772 122.77 25.9867 122.406 26.136C122.051 26.2853 121.673 26.36 121.271 26.36ZM121.383 25.38C121.831 25.38 122.219 25.268 122.546 25.044C122.882 24.82 123.138 24.5027 123.316 24.092C123.502 23.672 123.596 23.182 123.596 22.622C123.596 22.09 123.502 21.6327 123.316 21.25C123.138 20.8673 122.886 20.5733 122.56 20.368C122.242 20.1627 121.869 20.06 121.439 20.06C120.73 20.06 120.179 20.3027 119.787 20.788C119.396 21.2733 119.2 21.9173 119.2 22.72C119.2 23.5227 119.391 24.1667 119.773 24.652C120.156 25.1373 120.693 25.38 121.383 25.38Z" fill="#413C6D"/>
<path d="M130.245 26.36C129.582 26.36 128.99 26.2153 128.467 25.926C127.954 25.6367 127.552 25.2213 127.263 24.68C126.974 24.1293 126.829 23.476 126.829 22.72C126.829 21.964 126.974 21.3153 127.263 20.774C127.552 20.2233 127.949 19.8033 128.453 19.514C128.957 19.2247 129.531 19.08 130.175 19.08C130.828 19.08 131.384 19.22 131.841 19.5C132.308 19.78 132.662 20.1627 132.905 20.648C133.148 21.124 133.269 21.6607 133.269 22.258C133.269 22.4167 133.264 22.5613 133.255 22.692C133.246 22.8227 133.232 22.9393 133.213 23.042H127.557V22.048H132.723L132.149 22.16C132.149 21.488 131.962 20.97 131.589 20.606C131.225 20.242 130.744 20.06 130.147 20.06C129.69 20.06 129.293 20.1673 128.957 20.382C128.63 20.5873 128.374 20.8907 128.187 21.292C128.01 21.684 127.921 22.16 127.921 22.72C127.921 23.2707 128.014 23.7467 128.201 24.148C128.388 24.5493 128.649 24.8573 128.985 25.072C129.33 25.2773 129.741 25.38 130.217 25.38C130.73 25.38 131.146 25.282 131.463 25.086C131.79 24.89 132.051 24.624 132.247 24.288L133.129 24.806C132.952 25.1233 132.723 25.3987 132.443 25.632C132.172 25.8653 131.85 26.0473 131.477 26.178C131.113 26.2993 130.702 26.36 130.245 26.36Z" fill="#413C6D"/>
<path d="M138.297 19.08C138.96 19.08 139.543 19.2247 140.047 19.514C140.56 19.8033 140.962 20.2233 141.251 20.774C141.54 21.3153 141.685 21.964 141.685 22.72C141.685 23.476 141.54 24.1293 141.251 24.68C140.962 25.2213 140.56 25.6367 140.047 25.926C139.543 26.2153 138.96 26.36 138.297 26.36C137.644 26.36 137.06 26.2153 136.547 25.926C136.034 25.6367 135.632 25.2213 135.343 24.68C135.054 24.1293 134.909 23.476 134.909 22.72C134.909 21.964 135.054 21.3153 135.343 20.774C135.632 20.2233 136.034 19.8033 136.547 19.514C137.06 19.2247 137.644 19.08 138.297 19.08ZM138.297 20.046C137.821 20.046 137.415 20.1533 137.079 20.368C136.743 20.5827 136.482 20.8907 136.295 21.292C136.118 21.684 136.029 22.16 136.029 22.72C136.029 23.2707 136.118 23.7467 136.295 24.148C136.482 24.5493 136.743 24.8573 137.079 25.072C137.415 25.2867 137.821 25.394 138.297 25.394C138.773 25.394 139.179 25.2867 139.515 25.072C139.851 24.8573 140.108 24.5493 140.285 24.148C140.472 23.7467 140.565 23.2707 140.565 22.72C140.565 22.16 140.472 21.684 140.285 21.292C140.108 20.8907 139.851 20.5827 139.515 20.368C139.179 20.1533 138.773 20.046 138.297 20.046Z" fill="#413C6D"/>
<path d="M146.313 26.36C145.632 26.36 145.002 26.2153 144.423 25.926C143.854 25.6367 143.415 25.226 143.107 24.694L144.059 24.008C144.265 24.4373 144.563 24.7733 144.955 25.016C145.357 25.2587 145.837 25.38 146.397 25.38C146.892 25.38 147.279 25.2867 147.559 25.1C147.839 24.904 147.979 24.652 147.979 24.344C147.979 24.148 147.914 23.9707 147.783 23.812C147.662 23.644 147.424 23.5227 147.069 23.448L145.389 23.098C144.708 22.958 144.218 22.7247 143.919 22.398C143.63 22.0713 143.485 21.6653 143.485 21.18C143.485 20.7973 143.593 20.4473 143.807 20.13C144.031 19.8127 144.344 19.5607 144.745 19.374C145.156 19.178 145.637 19.08 146.187 19.08C146.878 19.08 147.461 19.2153 147.937 19.486C148.413 19.7567 148.768 20.1393 149.001 20.634L148.063 21.25C147.905 20.8393 147.648 20.5407 147.293 20.354C146.939 20.158 146.57 20.06 146.187 20.06C145.851 20.06 145.562 20.1067 145.319 20.2C145.086 20.2933 144.904 20.424 144.773 20.592C144.652 20.7507 144.591 20.9327 144.591 21.138C144.591 21.3433 144.661 21.5347 144.801 21.712C144.941 21.88 145.203 22.0013 145.585 22.076L147.335 22.44C147.989 22.5707 148.446 22.7853 148.707 23.084C148.969 23.3827 149.099 23.7467 149.099 24.176C149.099 24.6147 148.983 25.002 148.749 25.338C148.516 25.6647 148.189 25.9167 147.769 26.094C147.349 26.2713 146.864 26.36 146.313 26.36Z" fill="#413C6D"/>
<path d="M164.411 19.22H165.657L163.221 26.22H162.101L160.127 20.648L158.265 26.22H157.145L154.709 19.22H155.955L157.719 24.918L159.623 19.22H160.743L162.647 24.918L164.411 19.22Z" fill="#413C6D"/>
<path d="M167.896 17.876C167.644 17.876 167.439 17.8013 167.28 17.652C167.131 17.4933 167.056 17.288 167.056 17.036C167.056 16.784 167.131 16.5833 167.28 16.434C167.439 16.2753 167.644 16.196 167.896 16.196C168.148 16.196 168.349 16.2753 168.498 16.434C168.657 16.5833 168.736 16.784 168.736 17.036C168.736 17.288 168.657 17.4933 168.498 17.652C168.349 17.8013 168.148 17.876 167.896 17.876ZM168.456 19.22V26.22H167.336V19.22H168.456Z" fill="#413C6D"/>
<path d="M172.707 17.232V24.288C172.707 24.6333 172.805 24.89 173.001 25.058C173.197 25.226 173.449 25.31 173.757 25.31C174.028 25.31 174.261 25.2633 174.457 25.17C174.653 25.0767 174.831 24.9507 174.989 24.792L175.381 25.73C175.167 25.926 174.91 26.08 174.611 26.192C174.322 26.304 173.986 26.36 173.603 26.36C173.249 26.36 172.917 26.2993 172.609 26.178C172.301 26.0473 172.054 25.8467 171.867 25.576C171.69 25.296 171.597 24.932 171.587 24.484V17.54L172.707 17.232ZM175.255 19.22V20.186H170.187V19.22H175.255Z" fill="#413C6D"/>
<path d="M176.92 26.22V16H178.04V20.27C178.283 19.85 178.605 19.5467 179.006 19.36C179.408 19.1733 179.846 19.08 180.322 19.08C180.826 19.08 181.284 19.178 181.694 19.374C182.105 19.5607 182.432 19.85 182.674 20.242C182.926 20.634 183.052 21.1333 183.052 21.74V26.22H181.932V22.132C181.932 21.3573 181.764 20.8207 181.428 20.522C181.102 20.214 180.696 20.06 180.21 20.06C179.874 20.06 179.538 20.1393 179.202 20.298C178.866 20.4567 178.586 20.718 178.362 21.082C178.148 21.4367 178.04 21.9127 178.04 22.51V26.22H176.92Z" fill="#413C6D"/>
<path d="M193.286 26.36C192.623 26.36 192.031 26.2153 191.508 25.926C190.995 25.6367 190.593 25.2213 190.304 24.68C190.015 24.1293 189.87 23.476 189.87 22.72C189.87 21.964 190.015 21.3153 190.304 20.774C190.593 20.2233 190.99 19.8033 191.494 19.514C191.998 19.2247 192.572 19.08 193.216 19.08C193.869 19.08 194.425 19.22 194.882 19.5C195.349 19.78 195.703 20.1627 195.946 20.648C196.189 21.124 196.31 21.6607 196.31 22.258C196.31 22.4167 196.305 22.5613 196.296 22.692C196.287 22.8227 196.273 22.9393 196.254 23.042H190.598V22.048H195.764L195.19 22.16C195.19 21.488 195.003 20.97 194.63 20.606C194.266 20.242 193.785 20.06 193.188 20.06C192.731 20.06 192.334 20.1673 191.998 20.382C191.671 20.5873 191.415 20.8907 191.228 21.292C191.051 21.684 190.962 22.16 190.962 22.72C190.962 23.2707 191.055 23.7467 191.242 24.148C191.429 24.5493 191.69 24.8573 192.026 25.072C192.371 25.2773 192.782 25.38 193.258 25.38C193.771 25.38 194.187 25.282 194.504 25.086C194.831 24.89 195.092 24.624 195.288 24.288L196.17 24.806C195.993 25.1233 195.764 25.3987 195.484 25.632C195.213 25.8653 194.891 26.0473 194.518 26.178C194.154 26.2993 193.743 26.36 193.286 26.36Z" fill="#413C6D"/>
<path d="M202.528 21.698C202.528 21.1753 202.388 20.774 202.108 20.494C201.828 20.2047 201.431 20.06 200.918 20.06C200.433 20.06 200.022 20.1673 199.686 20.382C199.35 20.5873 199.103 20.9233 198.944 21.39L198.034 20.83C198.221 20.3073 198.566 19.8873 199.07 19.57C199.574 19.2433 200.199 19.08 200.946 19.08C201.45 19.08 201.907 19.1687 202.318 19.346C202.729 19.514 203.051 19.7753 203.284 20.13C203.527 20.4753 203.648 20.9233 203.648 21.474V24.862C203.648 25.198 203.825 25.366 204.18 25.366C204.357 25.366 204.53 25.3427 204.698 25.296L204.642 26.178C204.455 26.2713 204.213 26.318 203.914 26.318C203.643 26.318 203.401 26.2667 203.186 26.164C202.971 26.0613 202.803 25.9073 202.682 25.702C202.561 25.4873 202.5 25.2213 202.5 24.904V24.764L202.78 24.806C202.668 25.17 202.477 25.4687 202.206 25.702C201.935 25.926 201.632 26.094 201.296 26.206C200.96 26.3087 200.629 26.36 200.302 26.36C199.891 26.36 199.509 26.29 199.154 26.15C198.799 26.01 198.515 25.8 198.3 25.52C198.095 25.2307 197.992 24.876 197.992 24.456C197.992 23.9333 198.165 23.504 198.51 23.168C198.865 22.8227 199.355 22.5893 199.98 22.468L202.752 21.922V22.846L200.498 23.308C200.041 23.4013 199.7 23.532 199.476 23.7C199.252 23.868 199.14 24.1013 199.14 24.4C199.14 24.6893 199.252 24.9273 199.476 25.114C199.709 25.2913 200.036 25.38 200.456 25.38C200.727 25.38 200.983 25.3473 201.226 25.282C201.478 25.2073 201.702 25.1 201.898 24.96C202.094 24.8107 202.248 24.6287 202.36 24.414C202.472 24.19 202.528 23.9287 202.528 23.63V21.698Z" fill="#413C6D"/>
<path d="M208.89 26.36C208.208 26.36 207.578 26.2153 207 25.926C206.43 25.6367 205.992 25.226 205.684 24.694L206.636 24.008C206.841 24.4373 207.14 24.7733 207.532 25.016C207.933 25.2587 208.414 25.38 208.974 25.38C209.468 25.38 209.856 25.2867 210.136 25.1C210.416 24.904 210.556 24.652 210.556 24.344C210.556 24.148 210.49 23.9707 210.36 23.812C210.238 23.644 210 23.5227 209.646 23.448L207.966 23.098C207.284 22.958 206.794 22.7247 206.496 22.398C206.206 22.0713 206.062 21.6653 206.062 21.18C206.062 20.7973 206.169 20.4473 206.384 20.13C206.608 19.8127 206.92 19.5607 207.322 19.374C207.732 19.178 208.213 19.08 208.764 19.08C209.454 19.08 210.038 19.2153 210.514 19.486C210.99 19.7567 211.344 20.1393 211.578 20.634L210.64 21.25C210.481 20.8393 210.224 20.5407 209.87 20.354C209.515 20.158 209.146 20.06 208.764 20.06C208.428 20.06 208.138 20.1067 207.896 20.2C207.662 20.2933 207.48 20.424 207.35 20.592C207.228 20.7507 207.168 20.9327 207.168 21.138C207.168 21.3433 207.238 21.5347 207.378 21.712C207.518 21.88 207.779 22.0013 208.162 22.076L209.912 22.44C210.565 22.5707 211.022 22.7853 211.284 23.084C211.545 23.3827 211.676 23.7467 211.676 24.176C211.676 24.6147 211.559 25.002 211.326 25.338C211.092 25.6647 210.766 25.9167 210.346 26.094C209.926 26.2713 209.44 26.36 208.89 26.36Z" fill="#413C6D"/>
<path d="M216.678 26.36C216.016 26.36 215.423 26.2153 214.9 25.926C214.387 25.6367 213.986 25.2213 213.696 24.68C213.407 24.1293 213.262 23.476 213.262 22.72C213.262 21.964 213.407 21.3153 213.696 20.774C213.986 20.2233 214.382 19.8033 214.886 19.514C215.39 19.2247 215.964 19.08 216.608 19.08C217.262 19.08 217.817 19.22 218.274 19.5C218.741 19.78 219.096 20.1627 219.338 20.648C219.581 21.124 219.702 21.6607 219.702 22.258C219.702 22.4167 219.698 22.5613 219.688 22.692C219.679 22.8227 219.665 22.9393 219.646 23.042H213.99V22.048H219.156L218.582 22.16C218.582 21.488 218.396 20.97 218.022 20.606C217.658 20.242 217.178 20.06 216.58 20.06C216.123 20.06 215.726 20.1673 215.39 20.382C215.064 20.5873 214.807 20.8907 214.62 21.292C214.443 21.684 214.354 22.16 214.354 22.72C214.354 23.2707 214.448 23.7467 214.634 24.148C214.821 24.5493 215.082 24.8573 215.418 25.072C215.764 25.2773 216.174 25.38 216.65 25.38C217.164 25.38 217.579 25.282 217.896 25.086C218.223 24.89 218.484 24.624 218.68 24.288L219.562 24.806C219.385 25.1233 219.156 25.3987 218.876 25.632C218.606 25.8653 218.284 26.0473 217.91 26.178C217.546 26.2993 217.136 26.36 216.678 26.36Z" fill="#413C6D"/>
<path d="M222.393 24.54C222.663 24.54 222.883 24.624 223.051 24.792C223.219 24.96 223.303 25.1793 223.303 25.45C223.303 25.7207 223.219 25.94 223.051 26.108C222.883 26.276 222.663 26.36 222.393 26.36C222.122 26.36 221.903 26.276 221.735 26.108C221.567 25.94 221.483 25.7207 221.483 25.45C221.483 25.1793 221.567 24.96 221.735 24.792C221.903 24.624 222.122 24.54 222.393 24.54Z" fill="#413C6D"/>
</g>
</svg>
